# xmcd
#
# Track frame offsets:
#	150
#	19401
#	32972
#	63529
#	83030
#	103539
#	121388
#	141033
#
# Disc length: 2204 seconds
#
# Revision: 9
# Processed by: cddbd v1.5.2PL0 Copyright (c) Steve Scherf et al.
# Submitted via: audiograbber 1.83.01
#
DISCID=6a089a08
DTITLE=Best Of Rock and Blues (Stereoplay) - Various
DYEAR=2000
DGENRE=Rock/Blues
TTITLE0=DOUG McLEOD - Whose Truth, Whose Lies?
TTITLE1=JOE BEARD - The Bitter Seed
TTITLE2=TERRY EVANS - The River
TTITLE3=BRUCE KATZ BAND - Beef Jerky
TTITLE4=LARRY GARNER - The Muddy River
TTITLE5=DAVID JOHANSEN - Well, I've Been To Memphis
TTITLE6=ERIC BIBB - World War Blues
TTITLE7=SCOTT HOLD - Breakin' Up Somebody's Home
EXTD=Beilage zu Stereoplay November 2000
EXTT0=
EXTT1=
EXTT2=
EXTT3=
EXTT4=
EXTT5=
EXTT6=
EXTT7=
PLAYORDER=
